<svg width="24" height="25" viewBox="0 0 24 25" fill="none" xmlns="http://www.w3.org/2000/svg">
<path d="M19.3259 6.27772L18.4944 6.83329V6.83329L19.3259 6.27772ZM19.3259 16.7223L18.4944 16.1667V16.1667L19.3259 16.7223ZM18.2223 17.8259L17.6667 16.9944H17.6667L18.2223 17.8259ZM14 18.4986L13.9956 17.4986C13.4451 17.501 13 17.9481 13 18.4986H14ZM14 18.5L14.8944 18.9472C14.9639 18.8084 15 18.6552 15 18.5H14ZM10 18.5H9C9 18.6552 9.03615 18.8084 9.10557 18.9472L10 18.5ZM10 18.4986H11C11 17.9481 10.5549 17.501 10.0044 17.4986L10 18.4986ZM5.77772 17.8259L6.33329 16.9944H6.33329L5.77772 17.8259ZM4.67412 16.7223L5.50559 16.1667L5.50559 16.1667L4.67412 16.7223ZM4.67412 6.27772L5.50559 6.83329L4.67412 6.27772ZM5.77772 5.17412L6.33329 6.00559L5.77772 5.17412ZM18.2223 5.17412L17.6667 6.00559L17.6667 6.00559L18.2223 5.17412ZM21 11.5C21 10.1164 21.0012 9.00334 20.9106 8.11264C20.8183 7.20523 20.6225 6.41829 20.1573 5.72215L18.4944 6.83329C18.7034 7.14604 18.8446 7.56578 18.9209 8.31505C18.9988 9.08104 19 10.0747 19 11.5H21ZM20.1573 17.2779C20.6225 16.5817 20.8183 15.7948 20.9106 14.8874C21.0012 13.9967 21 12.8836 21 11.5H19C19 12.9253 18.9988 13.919 18.9209 14.6849C18.8446 15.4342 18.7034 15.854 18.4944 16.1667L20.1573 17.2779ZM18.7779 18.6573C19.3238 18.2926 19.7926 17.8238 20.1573 17.2779L18.4944 16.1667C18.2755 16.4943 17.9943 16.7755 17.6667 16.9944L18.7779 18.6573ZM14.0044 19.4986C15.0785 19.4939 15.9763 19.4739 16.7267 19.3701C17.4931 19.2642 18.1699 19.0636 18.7779 18.6573L17.6667 16.9944C17.3934 17.1771 17.0378 17.3081 16.4528 17.389C15.8518 17.4721 15.0792 17.4939 13.9956 17.4986L14.0044 19.4986ZM15 18.5V18.4986H13V18.5H15ZM13.7889 21.1584L14.8944 18.9472L13.1056 18.0528L12 20.2639L13.7889 21.1584ZM10.2111 21.1584C10.9482 22.6325 13.0518 22.6325 13.7889 21.1584L12 20.2639L12 20.2639L10.2111 21.1584ZM9.10557 18.9472L10.2111 21.1584L12 20.2639L10.8944 18.0528L9.10557 18.9472ZM9 18.4986V18.5H11V18.4986H9ZM5.22215 18.6573C5.83014 19.0636 6.50685 19.2642 7.2733 19.3701C8.02368 19.4739 8.92154 19.4939 9.99564 19.4986L10.0044 17.4986C8.92075 17.4939 8.14815 17.4721 7.54716 17.389C6.96223 17.3081 6.60665 17.1771 6.33329 16.9944L5.22215 18.6573ZM3.84265 17.2779C4.20744 17.8238 4.6762 18.2926 5.22215 18.6573L6.33329 16.9944C6.00572 16.7755 5.72447 16.4943 5.50559 16.1667L3.84265 17.2779ZM3 11.5C3 12.8836 2.99879 13.9967 3.0894 14.8874C3.18171 15.7948 3.3775 16.5817 3.84265 17.2779L5.50559 16.1667C5.29662 15.854 5.15535 15.4342 5.07913 14.6849C5.00121 13.919 5 12.9253 5 11.5H3ZM3.84265 5.72215C3.3775 6.41829 3.18171 7.20523 3.0894 8.11264C2.99879 9.00334 3 10.1164 3 11.5H5C5 10.0747 5.00121 9.08104 5.07913 8.31505C5.15535 7.56578 5.29662 7.14604 5.50559 6.83329L3.84265 5.72215ZM5.22215 4.34265C4.6762 4.70744 4.20744 5.1762 3.84265 5.72215L5.50559 6.83329C5.72447 6.50572 6.00572 6.22447 6.33329 6.00559L5.22215 4.34265ZM11 3.5C9.61635 3.5 8.50334 3.49879 7.61264 3.5894C6.70523 3.68171 5.91829 3.8775 5.22215 4.34265L6.33329 6.00559C6.64604 5.79662 7.06578 5.65535 7.81505 5.57913C8.58104 5.50121 9.57473 5.5 11 5.5V3.5ZM13 3.5H11V5.5H13V3.5ZM18.7779 4.34265C18.0817 3.8775 17.2948 3.68171 16.3874 3.5894C15.4967 3.49879 14.3836 3.5 13 3.5V5.5C14.4253 5.5 15.419 5.50121 16.1849 5.57913C16.9342 5.65535 17.354 5.79662 17.6667 6.00559L18.7779 4.34265ZM20.1573 5.72215C19.7926 5.1762 19.3238 4.70744 18.7779 4.34265L17.6667 6.00559C17.9943 6.22447 18.2755 6.50572 18.4944 6.83329L20.1573 5.72215Z" fill="#333333"/>
<circle cx="16" cy="11.5" r="1" fill="#333333" stroke="#333333" stroke-linecap="round"/>
<circle cx="12" cy="11.5" r="1" fill="#333333" stroke="#333333" stroke-linecap="round"/>
<circle cx="8" cy="11.5" r="1" fill="#333333" stroke="#333333" stroke-linecap="round"/>
</svg>
