<svg width="60" height="60" viewBox="0 0 60 60" fill="none" xmlns="http://www.w3.org/2000/svg">
<g clip-path="url(#clip0_589_8506)">
<path d="M30 41.25C34.3594 41.25 37.4062 39.1992 39.1875 37.2773C40.2305 36.1406 42.0117 36.0586 43.1602 37.1133C44.2969 38.168 44.3672 39.9492 43.3125 41.0859C40.7461 43.8867 36.293 46.875 30 46.875C23.707 46.875 19.2539 43.8867 16.6875 41.0859C15.6328 39.9492 15.5977 38.168 16.8398 37.1133C17.9883 36.0586 19.7695 36.1406 20.8125 37.2773C22.5938 39.1992 25.6406 41.25 30 41.25ZM24.4219 24.375C24.4219 26.4492 22.7344 28.125 20.6719 28.125C18.5977 28.125 16.9219 26.4492 16.9219 24.375C16.9219 22.3008 18.5977 20.625 20.6719 20.625C22.7344 20.625 24.4219 22.3008 24.4219 24.375ZM35.6719 24.375C35.6719 22.3008 37.3477 20.625 39.4219 20.625C41.4844 20.625 43.1719 22.3008 43.1719 24.375C43.1719 26.4492 41.4844 28.125 39.4219 28.125C37.3477 28.125 35.6719 26.4492 35.6719 24.375ZM60 30C60 46.5703 46.5703 60 30 60C13.4297 60 0 46.5703 0 30C0 13.4297 13.4297 0 30 0C46.5703 0 60 13.4297 60 30ZM30 5.625C16.5352 5.625 5.625 16.5352 5.625 30C5.625 43.4648 16.5352 54.375 30 54.375C43.4648 54.375 54.375 43.4648 54.375 30C54.375 16.5352 43.4648 5.625 30 5.625Z" fill="#26AA82"/>
</g>
<defs>
<clipPath id="clip0_589_8506">
<rect width="60" height="60" fill="white"/>
</clipPath>
</defs>
</svg>
