<svg width="56" height="56" viewBox="0 0 56 56" fill="none" xmlns="http://www.w3.org/2000/svg">
<g filter="url(#filter0_d_271_4440)">
<path d="M4 24C4 37.2548 14.7452 48 28 48C41.2548 48 52 37.2548 52 24C52 10.7452 41.2548 0 28 0C14.7452 0 4 10.7452 4 24Z" fill="white"/>
<path d="M20.8329 24.5731C20.2795 25.0858 20.2795 25.9184 20.8329 26.4311L29.3329 34.3061C29.8863 34.8188 30.785 34.8188 31.3384 34.3061C31.8918 33.7934 31.8918 32.9608 31.3384 32.4481L23.8389 25.5L31.334 18.552C31.8873 18.0393 31.8873 17.2067 31.334 16.694C30.7806 16.1813 29.8819 16.1813 29.3285 16.694L20.8285 24.569L20.8329 24.5731Z" fill="black"/>
</g>
<defs>
<filter id="filter0_d_271_4440" x="0" y="0" width="56" height="56" filterUnits="userSpaceOnUse" color-interpolation-filters="sRGB">
<feFlood flood-opacity="0" result="BackgroundImageFix"/>
<feColorMatrix in="SourceAlpha" type="matrix" values="0 0 0 0 0 0 0 0 0 0 0 0 0 0 0 0 0 0 127 0" result="hardAlpha"/>
<feOffset dy="4"/>
<feGaussianBlur stdDeviation="2"/>
<feComposite in2="hardAlpha" operator="out"/>
<feColorMatrix type="matrix" values="0 0 0 0 0 0 0 0 0 0 0 0 0 0 0 0 0 0 0.25 0"/>
<feBlend mode="normal" in2="BackgroundImageFix" result="effect1_dropShadow_271_4440"/>
<feBlend mode="normal" in="SourceGraphic" in2="effect1_dropShadow_271_4440" result="shape"/>
</filter>
</defs>
</svg>
