<svg width="58" height="58" viewBox="0 0 58 58" fill="none" xmlns="http://www.w3.org/2000/svg">
<g filter="url(#filter0_d_271_4436)">
<path d="M54 25C54 38.8071 42.8071 50 29 50C15.1929 50 4 38.8071 4 25C4 11.1929 15.1929 0 29 0C42.8071 0 54 11.1929 54 25Z" fill="white"/>
<path d="M35.1676 24.5731C35.721 25.0858 35.721 25.9184 35.1676 26.4311L26.6676 34.3061C26.1142 34.8188 25.2155 34.8188 24.6621 34.3061C24.1087 33.7934 24.1087 32.9608 24.6621 32.4481L32.1616 25.5L24.6665 18.552C24.1132 18.0393 24.1132 17.2067 24.6665 16.694C25.2199 16.1813 26.1186 16.1813 26.672 16.694L35.172 24.569L35.1676 24.5731Z" fill="black"/>
</g>
<defs>
<filter id="filter0_d_271_4436" x="0" y="0" width="58" height="58" filterUnits="userSpaceOnUse" color-interpolation-filters="sRGB">
<feFlood flood-opacity="0" result="BackgroundImageFix"/>
<feColorMatrix in="SourceAlpha" type="matrix" values="0 0 0 0 0 0 0 0 0 0 0 0 0 0 0 0 0 0 127 0" result="hardAlpha"/>
<feOffset dy="4"/>
<feGaussianBlur stdDeviation="2"/>
<feComposite in2="hardAlpha" operator="out"/>
<feColorMatrix type="matrix" values="0 0 0 0 0.0541667 0 0 0 0 0.0532639 0 0 0 0 0.0532639 0 0 0 0.25 0"/>
<feBlend mode="normal" in2="BackgroundImageFix" result="effect1_dropShadow_271_4436"/>
<feBlend mode="normal" in="SourceGraphic" in2="effect1_dropShadow_271_4436" result="shape"/>
</filter>
</defs>
</svg>
