<svg width="66" height="65" viewBox="0 0 66 65" fill="none" xmlns="http://www.w3.org/2000/svg">
<path d="M33 59.5834C48.1878 59.5834 60.5 47.4577 60.5 32.5C60.5 17.5423 48.1878 5.41669 33 5.41669C17.8122 5.41669 5.5 17.5423 5.5 32.5C5.5 47.4577 17.8122 59.5834 33 59.5834Z" stroke="#97D299" stroke-width="5" stroke-linecap="round"/>
<path d="M22 45C23.3158 43.2851 25.0495 42.0461 26.9178 41.2346C28.8072 40.414 30.9013 40 32.9999 40C35.0986 40 37.1927 40.414 39.0822 41.2346C40.9503 42.0461 42.6841 43.2851 44 45" stroke="#97D299" stroke-width="5" stroke-linecap="round"/>
<path d="M24.75 30.4688C26.6485 30.4688 28.1875 28.9531 28.1875 27.0834C28.1875 25.2136 26.6485 23.6979 24.75 23.6979C22.8515 23.6979 21.3125 25.2136 21.3125 27.0834C21.3125 28.9531 22.8515 30.4688 24.75 30.4688Z" fill="#97D299" stroke="#97D299" stroke-width="0.5" stroke-linecap="round"/>
<path d="M41.25 30.4688C43.1485 30.4688 44.6875 28.9531 44.6875 27.0834C44.6875 25.2136 43.1485 23.6979 41.25 23.6979C39.3515 23.6979 37.8125 25.2136 37.8125 27.0834C37.8125 28.9531 39.3515 30.4688 41.25 30.4688Z" fill="#97D299" stroke="#97D299" stroke-width="0.5" stroke-linecap="round"/>
</svg>
