<svg width="18" height="21" viewBox="0 0 18 21" fill="none" xmlns="http://www.w3.org/2000/svg">
<path d="M14.625 8.125C14.625 9.91797 14.1012 11.5742 13.2188 12.918L17.6695 17.8672C18.109 18.3555 18.109 19.1484 17.6695 19.6367C17.2301 20.125 16.5164 20.125 16.077 19.6367L11.6262 14.6875C10.4168 15.6719 8.92617 16.25 7.3125 16.25C3.27305 16.25 0 12.6133 0 8.125C0 3.63672 3.27305 0 7.3125 0C11.352 0 14.625 3.63672 14.625 8.125ZM7.3125 13.75C10.1074 13.75 12.375 11.2305 12.375 8.125C12.375 5.01953 10.1074 2.5 7.3125 2.5C4.51758 2.5 2.25 5.01953 2.25 8.125C2.25 11.2305 4.51758 13.75 7.3125 13.75Z" fill="#454545"/>
</svg>
