<svg width="65" height="65" viewBox="0 0 65 65" fill="none" xmlns="http://www.w3.org/2000/svg">
<path d="M32.4998 59.5834C47.4576 59.5834 59.5832 47.4577 59.5832 32.5C59.5832 17.5423 47.4576 5.41669 32.4998 5.41669C17.5421 5.41669 5.4165 17.5423 5.4165 32.5C5.4165 47.4577 17.5421 59.5834 32.4998 59.5834Z" stroke="#7DC5B3" stroke-width="5" stroke-linecap="round"/>
<path d="M24.3752 30.4688C26.2449 30.4688 27.7606 28.9531 27.7606 27.0834C27.7606 25.2136 26.2449 23.6979 24.3752 23.6979C22.5054 23.6979 20.9897 25.2136 20.9897 27.0834C20.9897 28.9531 22.5054 30.4688 24.3752 30.4688Z" fill="#7DC5B3" stroke="#7DC5B3" stroke-width="0.5" stroke-linecap="round"/>
<path d="M40.6252 30.4688C42.4949 30.4688 44.0106 28.9531 44.0106 27.0834C44.0106 25.2136 42.4949 23.6979 40.6252 23.6979C38.7554 23.6979 37.2397 25.2136 37.2397 27.0834C37.2397 28.9531 38.7554 30.4688 40.6252 30.4688Z" fill="#7DC5B3" stroke="#7DC5B3" stroke-width="0.5" stroke-linecap="round"/>
<path fill-rule="evenodd" clip-rule="evenodd" d="M23.37 40.625C22.6123 40.625 22.2334 40.625 22.0313 40.9143C21.8292 41.2035 21.9464 41.5236 22.1808 42.1641C23.5786 45.9843 27.6702 48.75 32.5002 48.75C37.33 48.75 41.4217 45.9843 42.8195 42.1641C43.054 41.5236 43.1711 41.2035 42.969 40.9143C42.767 40.625 42.3881 40.625 41.6303 40.625H23.37Z" fill="#7DC5B3"/>
</svg>
