<svg width="25" height="25" viewBox="0 0 25 25" fill="none" xmlns="http://www.w3.org/2000/svg">
<path d="M14.4199 5.42017L15.127 6.12727L15.8341 5.42017L15.127 4.71306L14.4199 5.42017ZM11.127 10.1273L15.127 6.12727L13.7128 4.71306L9.71282 8.71306L11.127 10.1273ZM15.127 4.71306L11.127 0.71306L9.71281 2.12727L13.7128 6.12727L15.127 4.71306Z" fill="#333333"/>
<path d="M18.4821 8.92016C19.2526 10.2547 19.5612 11.8061 19.36 13.3338C19.1589 14.8616 18.4593 16.2803 17.3697 17.3699C16.2801 18.4595 14.8614 19.1591 13.3336 19.3603C11.8058 19.5614 10.2544 19.2528 8.91992 18.4823C7.58543 17.7119 6.54246 16.5226 5.95276 15.0989C5.36307 13.6753 5.25962 12.0969 5.65844 10.6084C6.05726 9.12 6.93608 7.80476 8.15859 6.86669C9.3811 5.92863 10.879 5.42017 12.4199 5.42017" stroke="#333333" stroke-width="2" stroke-linecap="round"/>
</svg>
